<svg width="390" height="11" viewBox="0 0 390 11" fill="none" xmlns="http://www.w3.org/2000/svg">
<line y1="5.43311" x2="391" y2="5.43311" stroke="#C6C6C6" stroke-opacity="0.83" stroke-width="10"/>
<line y1="5.49951" x2="391" y2="5.49951" stroke="white" stroke-width="6"/>
<path d="M0 5.6001H13.0333" stroke="#C6C6C6" stroke-opacity="0.83" stroke-width="2"/>
<line x1="17.0439" y1="5.56689" x2="37.0952" y2="5.56689" stroke="#C6C6C6" stroke-opacity="0.83" stroke-width="2"/>
<line x1="41.1055" y1="5.56689" x2="61.1568" y2="5.56689" stroke="#C6C6C6" stroke-opacity="0.83" stroke-width="2"/>
<line x1="65.167" y1="5.56689" x2="85.2183" y2="5.56689" stroke="#C6C6C6" stroke-opacity="0.83" stroke-width="2"/>
<line x1="89.2285" y1="5.56689" x2="109.28" y2="5.56689" stroke="#C6C6C6" stroke-opacity="0.83" stroke-width="2"/>
<line x1="113.29" y1="5.56689" x2="133.341" y2="5.56689" stroke="#C6C6C6" stroke-opacity="0.83" stroke-width="2"/>
<line x1="137.352" y1="5.56689" x2="157.403" y2="5.56689" stroke="#C6C6C6" stroke-opacity="0.83" stroke-width="2"/>
<line x1="161.413" y1="5.56689" x2="181.464" y2="5.56689" stroke="#C6C6C6" stroke-opacity="0.83" stroke-width="2"/>
<line x1="185.475" y1="5.56689" x2="205.526" y2="5.56689" stroke="#C6C6C6" stroke-opacity="0.83" stroke-width="2"/>
<line x1="209.536" y1="5.56689" x2="229.587" y2="5.56689" stroke="#C6C6C6" stroke-opacity="0.83" stroke-width="2"/>
<line x1="233.598" y1="5.56689" x2="253.649" y2="5.56689" stroke="#C6C6C6" stroke-opacity="0.83" stroke-width="2"/>
<line x1="257.659" y1="5.56689" x2="277.71" y2="5.56689" stroke="#C6C6C6" stroke-opacity="0.83" stroke-width="2"/>
<line x1="281.721" y1="5.56689" x2="301.772" y2="5.56689" stroke="#C6C6C6" stroke-opacity="0.83" stroke-width="2"/>
<line x1="305.782" y1="5.56689" x2="325.833" y2="5.56689" stroke="#C6C6C6" stroke-opacity="0.83" stroke-width="2"/>
<line x1="329.844" y1="5.56689" x2="349.895" y2="5.56689" stroke="#C6C6C6" stroke-opacity="0.83" stroke-width="2"/>
<line x1="353.905" y1="5.56689" x2="373.957" y2="5.56689" stroke="#C6C6C6" stroke-opacity="0.83" stroke-width="2"/>
<path d="M377.967 5.6001H391" stroke="#C6C6C6" stroke-opacity="0.83" stroke-width="2"/>
</svg>
