<svg width="297" height="119" viewBox="0 0 297 119" fill="none" xmlns="http://www.w3.org/2000/svg">
<g filter="url(#filter0_d_1151_7027)">
<path fill-rule="evenodd" clip-rule="evenodd" d="M5 11C5 6.58172 8.58172 3 13 3H284C288.418 3 292 6.58172 292 11V78C286.477 78 282 82.4771 282 88C282 93.5229 286.477 98 292 98V104C292 108.418 288.418 112 284 112H13C8.58173 112 5 108.418 5 104V98C10.5228 98 15 93.5229 15 88C15 82.4771 10.5228 78 5 78V11Z" fill="white"/>
</g>
<defs>
<filter id="filter0_d_1151_7027" x="0" y="0" width="297" height="119" filterUnits="userSpaceOnUse" color-interpolation-filters="sRGB">
<feFlood flood-opacity="0" result="BackgroundImageFix"/>
<feColorMatrix in="SourceAlpha" type="matrix" values="0 0 0 0 0 0 0 0 0 0 0 0 0 0 0 0 0 0 127 0" result="hardAlpha"/>
<feOffset dy="2"/>
<feGaussianBlur stdDeviation="2.5"/>
<feComposite in2="hardAlpha" operator="out"/>
<feColorMatrix type="matrix" values="0 0 0 0 0.657406 0 0 0 0 0.657406 0 0 0 0 0.657406 0 0 0 0.25 0"/>
<feBlend mode="normal" in2="BackgroundImageFix" result="effect1_dropShadow_1151_7027"/>
<feBlend mode="normal" in="SourceGraphic" in2="effect1_dropShadow_1151_7027" result="shape"/>
</filter>
</defs>
</svg>
