<svg width="717" height="55" viewBox="0 0 717 55" fill="none" xmlns="http://www.w3.org/2000/svg">
<path d="M10 1.5H707C711.694 1.5 715.5 5.30558 715.5 10V48.5H1.5V10C1.5 5.30558 5.30558 1.5 10 1.5Z" fill="white" stroke="#CCCCCC" stroke-width="3"/>
<path d="M373 50H362C362 51.4286 363.1 55 367.5 55C371.923 55 373 51.5625 373 50Z" fill="#A9A9A9"/>
<path d="M384 50H373C373 51.4286 374.1 55 378.5 55C382.923 55 384 51.5625 384 50Z" fill="#A9A9A9"/>
<path d="M431 50H420C420 51.4286 421.1 55 425.5 55C429.923 55 431 51.5625 431 50Z" fill="#A9A9A9"/>
<path d="M442 50H431C431 51.4286 432.1 55 436.5 55C440.923 55 442 51.5625 442 50Z" fill="#A9A9A9"/>
<path d="M461 50H450C450 51.4286 451.1 55 455.5 55C459.923 55 461 51.5625 461 50Z" fill="#A9A9A9"/>
<path d="M472 50H461C461 51.4286 462.1 55 466.5 55C470.923 55 472 51.5625 472 50Z" fill="#A9A9A9"/>
<path d="M519 50H508C508 51.4286 509.1 55 513.5 55C517.923 55 519 51.5625 519 50Z" fill="#A9A9A9"/>
<path d="M530 50H519C519 51.4286 520.1 55 524.5 55C528.923 55 530 51.5625 530 50Z" fill="#A9A9A9"/>
<path d="M549 50H538C538 51.4286 539.1 55 543.5 55C547.923 55 549 51.5625 549 50Z" fill="#A9A9A9"/>
<path d="M560 50H549C549 51.4286 550.1 55 554.5 55C558.923 55 560 51.5625 560 50Z" fill="#A9A9A9"/>
<path d="M607 50H596C596 51.4286 597.1 55 601.5 55C605.923 55 607 51.5625 607 50Z" fill="#A9A9A9"/>
<path d="M618 50H607C607 51.4286 608.1 55 612.5 55C616.923 55 618 51.5625 618 50Z" fill="#A9A9A9"/>
<path d="M637 50H626C626 51.4286 627.1 55 631.5 55C635.923 55 637 51.5625 637 50Z" fill="#A9A9A9"/>
<path d="M648 50H637C637 51.4286 638.1 55 642.5 55C646.923 55 648 51.5625 648 50Z" fill="#A9A9A9"/>
<path d="M695 50H684C684 51.4286 685.1 55 689.5 55C693.923 55 695 51.5625 695 50Z" fill="#A9A9A9"/>
<path d="M706 50H695C695 51.4286 696.1 55 700.5 55C704.923 55 706 51.5625 706 50Z" fill="#A9A9A9"/>
<path d="M21 50H10C10 51.4286 11.1 55 15.5 55C19.9229 55 21 51.5625 21 50Z" fill="#A9A9A9"/>
<path d="M32 50H21C21 51.4286 22.1 55 26.5 55C30.9229 55 32 51.5625 32 50Z" fill="#A9A9A9"/>
<path d="M79 50H68C68 51.4286 69.1 55 73.5 55C77.9229 55 79 51.5625 79 50Z" fill="#A9A9A9"/>
<path d="M90 50H79C79 51.4286 80.1 55 84.5 55C88.9229 55 90 51.5625 90 50Z" fill="#A9A9A9"/>
<path d="M109 50H98C98 51.4286 99.1 55 103.5 55C107.923 55 109 51.5625 109 50Z" fill="#A9A9A9"/>
<path d="M120 50H109C109 51.4286 110.1 55 114.5 55C118.923 55 120 51.5625 120 50Z" fill="#A9A9A9"/>
<path d="M167 50H156C156 51.4286 157.1 55 161.5 55C165.923 55 167 51.5625 167 50Z" fill="#A9A9A9"/>
<path d="M178 50H167C167 51.4286 168.1 55 172.5 55C176.923 55 178 51.5625 178 50Z" fill="#A9A9A9"/>
<path d="M197 50H186C186 51.4286 187.1 55 191.5 55C195.923 55 197 51.5625 197 50Z" fill="#A9A9A9"/>
<path d="M208 50H197C197 51.4286 198.1 55 202.5 55C206.923 55 208 51.5625 208 50Z" fill="#A9A9A9"/>
<path d="M255 50H244C244 51.4286 245.1 55 249.5 55C253.923 55 255 51.5625 255 50Z" fill="#A9A9A9"/>
<path d="M266 50H255C255 51.4286 256.1 55 260.5 55C264.923 55 266 51.5625 266 50Z" fill="#A9A9A9"/>
<path d="M285 50H274C274 51.4286 275.1 55 279.5 55C283.923 55 285 51.5625 285 50Z" fill="#A9A9A9"/>
<path d="M296 50H285C285 51.4286 286.1 55 290.5 55C294.923 55 296 51.5625 296 50Z" fill="#A9A9A9"/>
<path d="M343 50H332C332 51.4286 333.1 55 337.5 55C341.923 55 343 51.5625 343 50Z" fill="#A9A9A9"/>
<path d="M354 50H343C343 51.4286 344.1 55 348.5 55C352.923 55 354 51.5625 354 50Z" fill="#A9A9A9"/>
</svg>
